{"title":"Knowing - AVM","uid":5045213,"size":307478996,"categoryP":"video","categoryS":"handheld","magnet":"?xt=urn:btih:0cc8000e1266a099b06a20105b43b363aa022e3c&amp;dn=Knowing+-+AVM&amp;tr=udp%3A%2F%2Ftracker.openbittorrent.com%3A80&amp;tr=udp%3A%2F%2Fopen.demonii.com%3A1337&amp;tr=udp%3A%2F%2Ftracker.coppersurfer.tk%3A6969&amp;tr=udp%3A%2F%2Fexodus.desync.com%3A6969","seeders":0,"leechers":0,"uploader":"AVIDM","files":1,"time":1249592352,"description":"AVIDMobile - http://www.avidmobile.com.ar (Mobile media)\n\nVideo\nID                               : 1\nFormat                           : MPEG-4 Visual\nFormat profile                   : Advanced Simple@L5\nFormat settings, BVOP            : Yes\nFormat settings, QPel            : No\nFormat settings, GMC             : No warppoints\nFormat settings, Matrix          : Default (H.263)\nCodec ID                         : 20\nDuration                         : 2h 0mn\nBit rate mode                    : Variable\nBit rate                         : 273 Kbps\nMaximum bit rate                 : 1 075 Kbps\nWidth                            : 320 pixels\nHeight                           : 240 pixels\nDisplay aspect ratio             : 4/3\nFrame rate mode                  : Variable\nFrame rate                       : 23.976 fps\nMinimum frame rate               : 23.974 fps\nMaximum frame rate               : 23.981 fps\nResolution                       : 24 bits\nColorimetry                      : 4:2:0\nScan type                        : Progressive\nBits/(Pixel*Frame)               : 0.148\nStream size                      : 236 MiB (80%)\n\nAudio\nID                               : 2\nFormat                           : AAC\nFormat/Info                      : Advanced Audio Codec\nFormat version                   : Version 4\nFormat profile                   : LC\nFormat settings, SBR             : No\nCodec ID                         : 40\nDuration                         : 2h 0mn\nBit rate mode                    : Variable\nBit rate                         : 62.8 Kbps\nMaximum bit rate                 : 97.4 Kbps\nChannel(s)                       : 2 channels\nChannel positions                : L R\nSampling rate                    : 22.05 KHz\nResolution                       : 16 bits\nStream size                      : 54.3 MiB (19%)\nEncoded date                     : UTC 2009-08-03 05:31:01\nTagged date                      : UTC 2009-08-03 05:31:02","torrent":{"xt":"urn:btih:0cc8000e1266a099b06a20105b43b363aa022e3c","amp;dn":"Knowing+-+AVM","amp;tr":["udp%3A%2F%2Ftracker.openbittorrent.com%3A80","udp%3A%2F%2Fopen.demonii.com%3A1337","udp%3A%2F%2Ftracker.coppersurfer.tk%3A6969","udp%3A%2F%2Fexodus.desync.com%3A6969"],"infoHash":"0cc8000e1266a099b06a20105b43b363aa022e3c","infoHashBuffer":{"type":"Buffer","data":[12,200,0,14,18,102,160,153,176,106,32,16,91,67,179,99,170,2,46,60]},"announce":[],"urlList":[]}}